<svg xmlns="http://www.w3.org/2000/svg" xmlns:xlink="http://www.w3.org/1999/xlink" xmlns:s="https://github.com/nturley/netlistsvg" width="383" height="264"><style>svg {
  stroke:#000;
  fill:none;
}
text {
  fill:#000;
  stroke:none;
  font-size:10px;
  font-weight: bold;
  font-family: "Courier New", monospace;
}
line {
    stroke-linecap: round;
}
.nodelabel {
  text-anchor: middle;
}
.inputPortLabel {
  text-anchor: end;
}
.splitjoinBody {
  fill:#000;
}</style><g s:type="generic" transform="translate(181,22)" s:width="30" s:height="40" id="cell_label1"><text x="15" y="-4" class="nodelabel cell_label1" s:attribute="ref">xor_gate</text><rect width="30" height="40" s:generic="body" class="cell_label1"/><g transform="translate(0,10)" s:x="0" s:y="10" s:pid="in0" id="port_label1~i1"><text x="-3" y="-4" class="inputPortLabel cell_label1">i1</text></g><g transform="translate(0,30)" s:x="0" s:y="10" s:pid="in0" id="port_label1~i2"><text x="-3" y="-4" class="inputPortLabel cell_label1">i2</text></g><g transform="translate(30,10)" s:x="30" s:y="10" s:pid="out0" id="port_label1~o"><text x="5" y="-4" style="fill:#000; stroke:none" class="cell_label1">o</text></g></g><g s:type="generic" transform="translate(181,110)" s:width="30" s:height="40" id="cell_label2"><text x="15" y="-4" class="nodelabel cell_label2" s:attribute="ref">xor_gate</text><rect width="30" height="40" s:generic="body" class="cell_label2"/><g transform="translate(0,10)" s:x="0" s:y="10" s:pid="in0" id="port_label2~i1"><text x="-3" y="-4" class="inputPortLabel cell_label2">i1</text></g><g transform="translate(0,30)" s:x="0" s:y="10" s:pid="in0" id="port_label2~i2"><text x="-3" y="-4" class="inputPortLabel cell_label2">i2</text></g><g transform="translate(30,10)" s:x="30" s:y="10" s:pid="out0" id="port_label2~o"><text x="5" y="-4" style="fill:#000; stroke:none" class="cell_label2">o</text></g></g><g s:type="generic" transform="translate(181,198)" s:width="30" s:height="40" id="cell_label3"><text x="15" y="-4" class="nodelabel cell_label3" s:attribute="ref">xor_gate</text><rect width="30" height="40" s:generic="body" class="cell_label3"/><g transform="translate(0,10)" s:x="0" s:y="10" s:pid="in0" id="port_label3~i1"><text x="-3" y="-4" class="inputPortLabel cell_label3">i1</text></g><g transform="translate(0,30)" s:x="0" s:y="10" s:pid="in0" id="port_label3~i2"><text x="-3" y="-4" class="inputPortLabel cell_label3">i2</text></g><g transform="translate(30,10)" s:x="30" s:y="10" s:pid="out0" id="port_label3~o"><text x="5" y="-4" style="fill:#000; stroke:none" class="cell_label3">o</text></g></g><g s:type="inputExt" transform="translate(12,32.5)" s:width="30" s:height="20" id="cell_BCD"><text x="15" y="-4" class="nodelabel cell_BCD" s:attribute="ref">BCD</text><s:alias val="$_inputExt_"/><path d="M0,0 L0,20 L15,20 L30,10 L15,0 Z" class="cell_BCD"/><g s:x="30" s:y="10" s:pid="Y"/></g><g s:type="outputExt" transform="translate(341,100.5)" s:width="30" s:height="20" id="cell_Gray"><text x="15" y="-4" class="nodelabel cell_Gray" s:attribute="ref">Gray</text><s:alias val="$_outputExt_"/><path d="M30,0 L30,20 L15,20 L0,10 L15,0 Z" class="cell_Gray"/><g s:x="0" s:y="10" s:pid="A"/></g><g s:type="join" transform="translate(261,90)" s:width="4" s:height="40" id="cell_$join$,6,7,8,5,"><rect width="5" height="80" class="splitjoinBody" s:generic="body"/><s:alias val="$_join_"/><g s:x="5" s:y="20" s:pid="out"/><g transform="translate(0,10)" s:x="0" s:y="10" s:pid="in0"><text x="-3" y="-4" class="inputPortLabel">0</text></g><g transform="translate(0,30)" s:x="0" s:y="10" s:pid="in0"><text x="-3" y="-4" class="inputPortLabel">1</text></g><g transform="translate(0,50)" s:x="0" s:y="10" s:pid="in0"><text x="-3" y="-4" class="inputPortLabel">2</text></g><g transform="translate(0,70)" s:x="0" s:y="10" s:pid="in0"><text x="-3" y="-4" class="inputPortLabel">3</text></g></g><g s:type="split" transform="translate(116,22)" s:width="5" s:height="40" id="cell_$split$,2,3,4,5,"><rect width="5" height="80" class="splitjoinBody" s:generic="body"/><s:alias val="$_split_"/><g s:x="0" s:y="20" s:pid="in"/><g transform="translate(4,10)" s:x="4" s:y="10" s:pid="out0"><text x="5" y="-4">0</text></g><g transform="translate(4,30)" s:x="4" s:y="10" s:pid="out0"><text x="5" y="-4">1</text></g><g transform="translate(4,50)" s:x="4" s:y="10" s:pid="out0"><text x="5" y="-4">2</text></g><g transform="translate(4,70)" s:x="4" s:y="10" s:pid="out0"><text x="5" y="-4">3</text></g></g><line x1="121" x2="181" y1="32.5" y2="32.5" class="net_2 width_1" style="stroke-width: 1"/><line x1="121" x2="181" y1="52.5" y2="52.5" class="net_3 width_1" style="stroke-width: 1"/><line x1="121" x2="158" y1="52.5" y2="52.5" class="net_3 width_1" style="stroke-width: 1"/><line x1="158" x2="158" y1="52.5" y2="120.5" class="net_3 width_1" style="stroke-width: 1"/><circle cx="158" cy="52.5" r="2" style="fill:#000" class="net_3 width_1"/><line x1="158" x2="181" y1="120.5" y2="120.5" class="net_3 width_1" style="stroke-width: 1"/><line x1="121" x2="148" y1="72.5" y2="72.5" class="net_4 width_1" style="stroke-width: 1"/><line x1="148" x2="148" y1="72.5" y2="140.5" class="net_4 width_1" style="stroke-width: 1"/><circle cx="148" cy="140.5" r="2" style="fill:#000" class="net_4 width_1"/><line x1="148" x2="181" y1="140.5" y2="140.5" class="net_4 width_1" style="stroke-width: 1"/><line x1="121" x2="148" y1="72.5" y2="72.5" class="net_4 width_1" style="stroke-width: 1"/><line x1="148" x2="148" y1="72.5" y2="208.5" class="net_4 width_1" style="stroke-width: 1"/><line x1="148" x2="181" y1="208.5" y2="208.5" class="net_4 width_1" style="stroke-width: 1"/><line x1="121" x2="138" y1="92.5" y2="92.5" class="net_5 width_1" style="stroke-width: 1"/><line x1="138" x2="138" y1="92.5" y2="228.5" class="net_5 width_1" style="stroke-width: 1"/><circle cx="138" cy="228.5" r="2" style="fill:#000" class="net_5 width_1"/><line x1="138" x2="181" y1="228.5" y2="228.5" class="net_5 width_1" style="stroke-width: 1"/><line x1="121" x2="138" y1="92.5" y2="92.5" class="net_5 width_1" style="stroke-width: 1"/><line x1="138" x2="138" y1="92.5" y2="251" class="net_5 width_1" style="stroke-width: 1"/><line x1="138" x2="261.5" y1="251" y2="251" class="net_5 width_1" style="stroke-width: 1"/><line x1="261.5" x2="261.5" y1="251" y2="161" class="net_5 width_1" style="stroke-width: 1"/><line x1="267" x2="341" y1="110.5" y2="110.5" class="net_6,7,8,5 width_4" style="stroke-width: 2"/><line x1="212" x2="229" y1="32.5" y2="32.5" class="net_6 width_1" style="stroke-width: 1"/><line x1="229" x2="229" y1="32.5" y2="100.5" class="net_6 width_1" style="stroke-width: 1"/><line x1="229" x2="261" y1="100.5" y2="100.5" class="net_6 width_1" style="stroke-width: 1"/><line x1="212" x2="261" y1="120.5" y2="120.5" class="net_7 width_1" style="stroke-width: 1"/><line x1="212" x2="229" y1="208.5" y2="208.5" class="net_8 width_1" style="stroke-width: 1"/><line x1="229" x2="229" y1="208.5" y2="140.5" class="net_8 width_1" style="stroke-width: 1"/><line x1="229" x2="261" y1="140.5" y2="140.5" class="net_8 width_1" style="stroke-width: 1"/><line x1="42" x2="116" y1="42.5" y2="42.5" class="net_2,3,4,5 width_4" style="stroke-width: 2"/><rect x="303" y="105.5" width="16" height="9" class="net_6,7,8,5 width_4 busLabel_4" style="fill: white; stroke: none"/><text x="302" y="113.5" class="net_6,7,8,5 width_4 busLabel_4">/4/</text><rect x="78" y="37.5" width="16" height="9" class="net_2,3,4,5 width_4 busLabel_4" style="fill: white; stroke: none"/><text x="77" y="45.5" class="net_2,3,4,5 width_4 busLabel_4">/4/</text></svg>