<svg xmlns="http://www.w3.org/2000/svg" xmlns:xlink="http://www.w3.org/1999/xlink" xmlns:s="https://github.com/nturley/netlistsvg" width="224" height="184"><style>svg {
  stroke:#000;
  fill:none;
}
text {
  fill:#000;
  stroke:none;
  font-size:10px;
  font-weight: bold;
  font-family: "Courier New", monospace;
}
line {
    stroke-linecap: round;
}
.nodelabel {
  text-anchor: middle;
}
.inputPortLabel {
  text-anchor: end;
}
.splitjoinBody {
  fill:#000;
}</style><g s:type="mux" transform="translate(127,22)" s:width="20" s:height="40" id="cell_$abc$81$auto$blifparse.cc:386:parse_blif$82"><s:alias val="$pmux"/><s:alias val="$mux"/><s:alias val="$_MUX_"/><path d="M0,0 L20,10 L20,30 L0,40 Z" class="cell_$abc$81$auto$blifparse.cc:386:parse_blif$82"/><text x="5" y="32" class="nodelabel cell_$abc$81$auto$blifparse.cc:386:parse_blif$82" s:attribute="">1</text><text x="5" y="13" class="nodelabel cell_$abc$81$auto$blifparse.cc:386:parse_blif$82" s:attribute="">0</text><g s:x="0" s:y="10" s:pid="A"/><g s:x="0" s:y="30" s:pid="B"/><g s:x="10" s:y="35" s:pid="S"/><g s:x="20" s:y="20" s:pid="Y"/></g><g s:type="inputExt" transform="translate(62,87)" s:width="30" s:height="20" id="cell_A"><text x="15" y="-4" class="nodelabel cell_A" s:attribute="ref">A</text><s:alias val="$_inputExt_"/><path d="M0,0 L0,20 L15,20 L30,10 L15,0 Z" class="cell_A"/><g s:x="30" s:y="10" s:pid="Y"/></g><g s:type="inputExt" transform="translate(62,152)" s:width="30" s:height="20" id="cell_B"><text x="15" y="-4" class="nodelabel cell_B" s:attribute="ref">B</text><s:alias val="$_inputExt_"/><path d="M0,0 L0,20 L15,20 L30,10 L15,0 Z" class="cell_B"/><g s:x="30" s:y="10" s:pid="Y"/></g><g s:type="inputExt" transform="translate(62,22)" s:width="30" s:height="20" id="cell_C"><text x="15" y="-4" class="nodelabel cell_C" s:attribute="ref">C</text><s:alias val="$_inputExt_"/><path d="M0,0 L0,20 L15,20 L30,10 L15,0 Z" class="cell_C"/><g s:x="30" s:y="10" s:pid="Y"/></g><g s:type="inputExt" transform="translate(12,22)" s:width="30" s:height="20" id="cell_D"><text x="15" y="-4" class="nodelabel cell_D" s:attribute="ref">D</text><s:alias val="$_inputExt_"/><path d="M0,0 L0,20 L15,20 L30,10 L15,0 Z" class="cell_D"/><g s:x="30" s:y="10" s:pid="Y"/></g><g s:type="outputExt" transform="translate(182,32)" s:width="30" s:height="20" id="cell_F"><text x="15" y="-4" class="nodelabel cell_F" s:attribute="ref">F</text><s:alias val="$_outputExt_"/><path d="M30,0 L30,20 L15,20 L0,10 L15,0 Z" class="cell_F"/><g s:x="0" s:y="10" s:pid="A"/></g><line x1="92" x2="127" y1="32" y2="32" class="net_4 width_1" style="stroke-width: 1"/><line x1="92" x2="102" y1="97" y2="97" class="net_2 width_1" style="stroke-width: 1"/><line x1="102" x2="102" y1="97" y2="52" class="net_2 width_1" style="stroke-width: 1"/><line x1="102" x2="127" y1="52" y2="52" class="net_2 width_1" style="stroke-width: 1"/><line x1="92" x2="137" y1="162" y2="162" class="net_3 width_1" style="stroke-width: 1"/><line x1="137" x2="137" y1="162" y2="57" class="net_3 width_1" style="stroke-width: 1"/><line x1="147" x2="182" y1="42" y2="42" class="net_6 width_1" style="stroke-width: 1"/></svg>