<svg xmlns="http://www.w3.org/2000/svg" xmlns:xlink="http://www.w3.org/1999/xlink" xmlns:s="https://github.com/nturley/netlistsvg" width="376" height="348.5"><style>svg {
  stroke:#000;
  fill:none;
}
text {
  fill:#000;
  stroke:none;
  font-size:10px;
  font-weight: bold;
  font-family: "Courier New", monospace;
}
line {
    stroke-linecap: round;
}
.nodelabel {
  text-anchor: middle;
}
.inputPortLabel {
  text-anchor: end;
}
.splitjoinBody {
  fill:#000;
}</style><g s:type="generic" transform="translate(89,22)" s:width="30" s:height="40" id="cell_label1"><text x="15" y="-4" class="nodelabel cell_label1" s:attribute="ref">not_gate</text><rect width="30" height="20" s:generic="body" class="cell_label1"/><g transform="translate(0,10)" s:x="0" s:y="10" s:pid="in0" id="port_label1~i"><text x="-3" y="-4" class="inputPortLabel cell_label1">i</text></g><g transform="translate(30,10)" s:x="30" s:y="10" s:pid="out0" id="port_label1~o"><text x="5" y="-4" style="fill:#000; stroke:none" class="cell_label1">o</text></g></g><g s:type="generic" transform="translate(89,140.5)" s:width="30" s:height="40" id="cell_label2"><text x="15" y="-4" class="nodelabel cell_label2" s:attribute="ref">not_gate</text><rect width="30" height="20" s:generic="body" class="cell_label2"/><g transform="translate(0,10)" s:x="0" s:y="10" s:pid="in0" id="port_label2~i"><text x="-3" y="-4" class="inputPortLabel cell_label2">i</text></g><g transform="translate(30,10)" s:x="30" s:y="10" s:pid="out0" id="port_label2~o"><text x="5" y="-4" style="fill:#000; stroke:none" class="cell_label2">o</text></g></g><g s:type="generic" transform="translate(89,313.5)" s:width="30" s:height="40" id="cell_label3"><text x="15" y="-4" class="nodelabel cell_label3" s:attribute="ref">not_gate</text><rect width="30" height="20" s:generic="body" class="cell_label3"/><g transform="translate(0,10)" s:x="0" s:y="10" s:pid="in0" id="port_label3~i"><text x="-3" y="-4" class="inputPortLabel cell_label3">i</text></g><g transform="translate(30,10)" s:x="30" s:y="10" s:pid="out0" id="port_label3~o"><text x="5" y="-4" style="fill:#000; stroke:none" class="cell_label3">o</text></g></g><g s:type="generic" transform="translate(175,24.5)" s:width="30" s:height="40" id="cell_label4"><text x="15" y="-4" class="nodelabel cell_label4" s:attribute="ref">three_and_gate</text><rect width="30" height="60" s:generic="body" class="cell_label4"/><g transform="translate(0,10)" s:x="0" s:y="10" s:pid="in0" id="port_label4~i1"><text x="-3" y="-4" class="inputPortLabel cell_label4">i1</text></g><g transform="translate(0,30)" s:x="0" s:y="10" s:pid="in0" id="port_label4~i2"><text x="-3" y="-4" class="inputPortLabel cell_label4">i2</text></g><g transform="translate(0,50)" s:x="0" s:y="10" s:pid="in0" id="port_label4~i3"><text x="-3" y="-4" class="inputPortLabel cell_label4">i3</text></g><g transform="translate(30,10)" s:x="30" s:y="10" s:pid="out0" id="port_label4~o"><text x="5" y="-4" style="fill:#000; stroke:none" class="cell_label4">o</text></g></g><g s:type="generic" transform="translate(175,165.5)" s:width="30" s:height="40" id="cell_label5"><text x="15" y="-4" class="nodelabel cell_label5" s:attribute="ref">three_and_gate</text><rect width="30" height="60" s:generic="body" class="cell_label5"/><g transform="translate(0,10)" s:x="0" s:y="10" s:pid="in0" id="port_label5~i1"><text x="-3" y="-4" class="inputPortLabel cell_label5">i1</text></g><g transform="translate(0,30)" s:x="0" s:y="10" s:pid="in0" id="port_label5~i2"><text x="-3" y="-4" class="inputPortLabel cell_label5">i2</text></g><g transform="translate(0,50)" s:x="0" s:y="10" s:pid="in0" id="port_label5~i3"><text x="-3" y="-4" class="inputPortLabel cell_label5">i3</text></g><g transform="translate(30,10)" s:x="30" s:y="10" s:pid="out0" id="port_label5~o"><text x="5" y="-4" style="fill:#000; stroke:none" class="cell_label5">o</text></g></g><g s:type="generic" transform="translate(175,273.5)" s:width="30" s:height="40" id="cell_label6"><text x="15" y="-4" class="nodelabel cell_label6" s:attribute="ref">three_and_gate</text><rect width="30" height="60" s:generic="body" class="cell_label6"/><g transform="translate(0,10)" s:x="0" s:y="10" s:pid="in0" id="port_label6~i1"><text x="-3" y="-4" class="inputPortLabel cell_label6">i1</text></g><g transform="translate(0,30)" s:x="0" s:y="10" s:pid="in0" id="port_label6~i2"><text x="-3" y="-4" class="inputPortLabel cell_label6">i2</text></g><g transform="translate(0,50)" s:x="0" s:y="10" s:pid="in0" id="port_label6~i3"><text x="-3" y="-4" class="inputPortLabel cell_label6">i3</text></g><g transform="translate(30,10)" s:x="30" s:y="10" s:pid="out0" id="port_label6~o"><text x="5" y="-4" style="fill:#000; stroke:none" class="cell_label6">o</text></g></g><g s:type="generic" transform="translate(261,233.5)" s:width="30" s:height="40" id="cell_label7"><text x="15" y="-4" class="nodelabel cell_label7" s:attribute="ref">three_or_gate</text><rect width="30" height="60" s:generic="body" class="cell_label7"/><g transform="translate(0,10)" s:x="0" s:y="10" s:pid="in0" id="port_label7~i1"><text x="-3" y="-4" class="inputPortLabel cell_label7">i1</text></g><g transform="translate(0,30)" s:x="0" s:y="10" s:pid="in0" id="port_label7~i2"><text x="-3" y="-4" class="inputPortLabel cell_label7">i2</text></g><g transform="translate(0,50)" s:x="0" s:y="10" s:pid="in0" id="port_label7~i3"><text x="-3" y="-4" class="inputPortLabel cell_label7">i3</text></g><g transform="translate(30,10)" s:x="30" s:y="10" s:pid="out0" id="port_label7~o"><text x="5" y="-4" style="fill:#000; stroke:none" class="cell_label7">o</text></g></g><g s:type="inputExt" transform="translate(12,76)" s:width="30" s:height="20" id="cell_x1"><text x="15" y="-4" class="nodelabel cell_x1" s:attribute="ref">x1</text><s:alias val="$_inputExt_"/><path d="M0,0 L0,20 L15,20 L30,10 L15,0 Z" class="cell_x1"/><g s:x="30" s:y="10" s:pid="Y"/></g><g s:type="inputExt" transform="translate(12,141)" s:width="30" s:height="20" id="cell_x2"><text x="15" y="-4" class="nodelabel cell_x2" s:attribute="ref">x2</text><s:alias val="$_inputExt_"/><path d="M0,0 L0,20 L15,20 L30,10 L15,0 Z" class="cell_x2"/><g s:x="30" s:y="10" s:pid="Y"/></g><g s:type="inputExt" transform="translate(12,206)" s:width="30" s:height="20" id="cell_x3"><text x="15" y="-4" class="nodelabel cell_x3" s:attribute="ref">x3</text><s:alias val="$_inputExt_"/><path d="M0,0 L0,20 L15,20 L30,10 L15,0 Z" class="cell_x3"/><g s:x="30" s:y="10" s:pid="Y"/></g><g s:type="outputExt" transform="translate(334,234)" s:width="30" s:height="20" id="cell_f"><text x="15" y="-4" class="nodelabel cell_f" s:attribute="ref">f</text><s:alias val="$_outputExt_"/><path d="M30,0 L30,20 L15,20 L0,10 L15,0 Z" class="cell_f"/><g s:x="0" s:y="10" s:pid="A"/></g><line x1="42" x2="72" y1="86" y2="86" class="net_2 width_1" style="stroke-width: 1"/><line x1="72" x2="72" y1="86" y2="32.5" class="net_2 width_1" style="stroke-width: 1"/><circle cx="72" cy="86" r="2" style="fill:#000" class="net_2 width_1"/><line x1="72" x2="89" y1="32.5" y2="32.5" class="net_2 width_1" style="stroke-width: 1"/><line x1="42" x2="147" y1="86" y2="86" class="net_2 width_1" style="stroke-width: 1"/><line x1="147" x2="147" y1="86" y2="176" class="net_2 width_1" style="stroke-width: 1"/><line x1="147" x2="175" y1="176" y2="176" class="net_2 width_1" style="stroke-width: 1"/><line x1="42" x2="72" y1="86" y2="86" class="net_2 width_1" style="stroke-width: 1"/><line x1="72" x2="72" y1="86" y2="281.5" class="net_2 width_1" style="stroke-width: 1"/><line x1="72" x2="137" y1="281.5" y2="281.5" class="net_2 width_1" style="stroke-width: 1"/><line x1="137" x2="137" y1="281.5" y2="284" class="net_2 width_1" style="stroke-width: 1"/><line x1="137" x2="175" y1="284" y2="284" class="net_2 width_1" style="stroke-width: 1"/><line x1="42" x2="89" y1="151" y2="151" class="net_3 width_1" style="stroke-width: 1"/><line x1="42" x2="62" y1="151" y2="151" class="net_3 width_1" style="stroke-width: 1"/><line x1="62" x2="62" y1="151" y2="55" class="net_3 width_1" style="stroke-width: 1"/><circle cx="62" cy="151" r="2" style="fill:#000" class="net_3 width_1"/><line x1="62" x2="175" y1="55" y2="55" class="net_3 width_1" style="stroke-width: 1"/><line x1="42" x2="62" y1="151" y2="151" class="net_3 width_1" style="stroke-width: 1"/><line x1="62" x2="62" y1="151" y2="292.5" class="net_3 width_1" style="stroke-width: 1"/><line x1="62" x2="137" y1="292.5" y2="292.5" class="net_3 width_1" style="stroke-width: 1"/><line x1="137" x2="137" y1="292.5" y2="304" class="net_3 width_1" style="stroke-width: 1"/><line x1="137" x2="175" y1="304" y2="304" class="net_3 width_1" style="stroke-width: 1"/><line x1="42" x2="52" y1="216" y2="216" class="net_4 width_1" style="stroke-width: 1"/><line x1="52" x2="52" y1="216" y2="324" class="net_4 width_1" style="stroke-width: 1"/><circle cx="52" cy="216" r="2" style="fill:#000" class="net_4 width_1"/><line x1="52" x2="89" y1="324" y2="324" class="net_4 width_1" style="stroke-width: 1"/><line x1="42" x2="52" y1="216" y2="216" class="net_4 width_1" style="stroke-width: 1"/><line x1="52" x2="52" y1="216" y2="75" class="net_4 width_1" style="stroke-width: 1"/><line x1="52" x2="175" y1="75" y2="75" class="net_4 width_1" style="stroke-width: 1"/><line x1="42" x2="175" y1="216" y2="216" class="net_4 width_1" style="stroke-width: 1"/><line x1="120" x2="137" y1="32.5" y2="32.5" class="net_6 width_1" style="stroke-width: 1"/><line x1="137" x2="137" y1="32.5" y2="35" class="net_6 width_1" style="stroke-width: 1"/><line x1="137" x2="175" y1="35" y2="35" class="net_6 width_1" style="stroke-width: 1"/><line x1="120" x2="137" y1="151" y2="151" class="net_7 width_1" style="stroke-width: 1"/><line x1="137" x2="137" y1="151" y2="196" class="net_7 width_1" style="stroke-width: 1"/><line x1="137" x2="175" y1="196" y2="196" class="net_7 width_1" style="stroke-width: 1"/><line x1="120" x2="175" y1="324" y2="324" class="net_8 width_1" style="stroke-width: 1"/><line x1="206" x2="233" y1="35" y2="35" class="net_9 width_1" style="stroke-width: 1"/><line x1="233" x2="233" y1="35" y2="244" class="net_9 width_1" style="stroke-width: 1"/><line x1="233" x2="261" y1="244" y2="244" class="net_9 width_1" style="stroke-width: 1"/><line x1="206" x2="223" y1="176" y2="176" class="net_10 width_1" style="stroke-width: 1"/><line x1="223" x2="223" y1="176" y2="264" class="net_10 width_1" style="stroke-width: 1"/><line x1="223" x2="261" y1="264" y2="264" class="net_10 width_1" style="stroke-width: 1"/><line x1="206" x2="261" y1="284" y2="284" class="net_11 width_1" style="stroke-width: 1"/><line x1="292" x2="334" y1="244" y2="244" class="net_5 width_1" style="stroke-width: 1"/></svg>